<svg xmlns="http://www.w3.org/2000/svg" viewBox="0 0 114.6 176.1"><defs><style>.a79dd065-c2bb-49ed-92e8-103a4af6ddbc{fill:#233b46;fill-rule:evenodd;}</style></defs><g id="bce5d1ad-02b4-43d1-8ea2-48817c9b027b" data-name="Layer 2"><g id="ad2ed02a-c9af-45ed-ac00-d81fa998f44e" data-name="Layer 1"><path class="a79dd065-c2bb-49ed-92e8-103a4af6ddbc" d="M15.2,74.8,7.5,82.4s-3.7,2.4-6.4-8.5.5-9.5.5-9.5l8.3-9c1.1-1.1,7.3-9.2,8.5-10.8a86.7,86.7,0,0,0,7-10.9c1.5-3,3.8-6.5,5-11.1S31,11,30.6,9.2C29.8,5.4,23.3.1,23.3,0S33,2.6,38.2,3.5A140.1,140.1,0,0,0,53,5.1a53.8,53.8,0,0,1,23.9,7.4A57,57,0,0,1,93.4,27.9c5.3,7.3,7.9,14.3,10.1,25,2.9,13.9,1.3,23.3-1.7,32.7S94.4,104.9,90,116.5a79.9,79.9,0,0,0-3.6,14.1c-.5,3.6-.4,6.6,1,6.9,4.4,1,13.7,3.2,17,4.9a23,23,0,0,1,8.1,7.6,16.1,16.1,0,0,1,2.1,4.7c0,.3-104.4.1-104.4.1a12.4,12.4,0,0,1,.8-3.2c.9-2.1,2.4-3.3,5.4-4.9a73.8,73.8,0,0,1,9.6-3.8,61.5,61.5,0,0,1,10.3-2.2,80.3,80.3,0,0,1,10.1-.5c4.5,0,10.5-.5,9.8-1.2a26.3,26.3,0,0,1-5.3-6.6c-1.7-2.8-2.6-5.9-2.7-10.5s1-8.7,2.6-12.9a80.6,80.6,0,0,1,6.5-12.8c1.5-2.4,9.9-15.6,12.7-19.5s9.3-16,10.3-19.4,1.5-9.6-.8-14.1-5-6.1-8.4-8.1l-4.4-2.3S69.5,35.4,71,37s3.7,7.6,3.9,9.5a24.7,24.7,0,0,1-2.2,13,78.9,78.9,0,0,1-7.2,12.8c-2.9,4.1-6.2,8.1-9.3,12.2a100.4,100.4,0,0,0-7.5,10.9,65.1,65.1,0,0,0-5.6,11.9,37.1,37.1,0,0,0-1.3,10.9c.1,3.4,1.3,7.1,2,9.8a37.7,37.7,0,0,0,2.7,6.3A141.9,141.9,0,0,1,35.4,121c-5-6.8-8.6-14.5-6.7-22.6a34.8,34.8,0,0,1,4.7-11.6c3.1-5,7.3-9,12.4-13.5s7.7-6.9,9.5-9.7,3.3-5.1,3.7-7.7a34.6,34.6,0,0,0,.2-8.7c-.2-2.2-.7-4.1-1.7-5.2a53.9,53.9,0,0,1-3.4,9.5c-1.6,2.8-4.9,5.8-8.7,7.9a20.6,20.6,0,0,1-8.8,3.2,16.3,16.3,0,0,0-6.1,2.3,8.4,8.4,0,0,0-2.9,4,35.1,35.1,0,0,1-1.9,5.4c-.5.8-2,2.6-2.2,2.9a10.9,10.9,0,0,0-.3,2.9s-1.6,2.3-3.5,2.6-6,.2-6.2-.5a8.7,8.7,0,0,1,0-3.6A30.4,30.4,0,0,1,15.2,74.8Z"/><polygon class="a79dd065-c2bb-49ed-92e8-103a4af6ddbc" points="114.6 163.8 114.6 176.1 10.2 175.6 10.2 163.8 114.6 163.8"/></g></g></svg>